<svg xmlns="http://www.w3.org/2000/svg" width="148" height="59.4"><style type="text/css">.st0{fill:none;} .st1{fill:#178FC8;} .st2{fill:#042C47;}</style><path d="M0 2.2h841.9v595.3H0z" class="st0"/><path d="M43.5 29.7H12.2c0-8.7 7-15.7 15.7-15.7 8.6 0 15.6 7.1 15.6 15.7m-4.8-6.1c0-2.1-1.7-3.8-3.8-3.8s-3.8 1.7-3.8 3.8c0 2.1 1.7 3.8 3.8 3.8s3.8-1.7 3.8-3.8" class="st1"/><path d="M43.7 40c-3.4 5.2-9.2 8.6-15.9 8.6C17.4 48.6 9 40.2 9 29.7c0-10.4 8.5-18.9 18.9-18.9 6.4 0 12.1 3.2 15.5 8.1L51 29.7 43.7 40zM27.8 1.3C15.7 1.3 5.3 9 1.2 19.8l6.9 9.9-6.9 9.9c4 10.8 14.4 18.5 26.6 18.5 15.7 0 28.4-12.7 28.4-28.4S43.5 1.3 27.8 1.3M12.2 31.1h31.2c0-.4.1-.8.1-1.2H12.2c0 .4 0 .8 0 1.2M12.5 33.1h30.7c.1-.5.2-1 .2-1.5H12.3c0 .5.1 1 .2 1.5M13.3 35.7h29c.3-.7.5-1.4.7-2.1H12.6c.2.7.4 1.4.7 2.1M14.9 38.6h25.9c.5-.8 1-1.6 1.4-2.5H13.5c.4.9.9 1.7 1.4 2.5" class="st2"/><path d="M15.3 39.1c.7.9 1.5 1.7 2.3 2.5h20.5c.9-.7 1.6-1.6 2.3-2.5H15.3zM27.8 45.4c3.5 0 6.7-1.1 9.3-3.1H18.5c2.6 2 5.9 3.1 9.3 3.1" class="st2"/><path d="M65.5 12.8h1v7.8h-1zM68.2 20.7v-7.8h1.1l2.5 4c.6.9 1 1.7 1.4 2.5-.1-1-.1-2-.1-3.2v-3.3h1v7.8h-1l-2.5-4c-.5-.9-1.1-1.8-1.4-2.6.1 1 .1 1.9.1 3.2v3.3h-1.1zM75.8 19.4c.5.3 1.1.5 1.8.5 1 0 1.6-.5 1.6-1.3 0-.7-.4-1.1-1.5-1.5-1.3-.5-2.1-1.1-2.1-2.2 0-1.2 1-2.1 2.5-2.1.8 0 1.4.2 1.7.4l-.3.8c-.2-.1-.8-.4-1.5-.4-1.1 0-1.5.6-1.5 1.2 0 .7.5 1.1 1.6 1.5 1.3.5 2 1.2 2 2.3 0 1.2-.9 2.3-2.7 2.3-.8 0-1.6-.2-2-.5l.4-1zM83.1 13.7h-2.4v-.9h5.8v.9h-2.4v7h-1zM87.4 12.8h1v7.8h-1zM91.7 13.7h-2.4v-.9h5.8v.9h-2.4v7h-1zM96.9 12.8v4.6c0 1.7.8 2.5 1.8 2.5 1.1 0 1.9-.8 1.9-2.5v-4.6h1v4.6c0 2.4-1.3 3.4-3 3.4-1.6 0-2.8-.9-2.8-3.3v-4.6h1.1zM104.9 13.7h-2.3v-.9h5.8v.9H106v7h-1.1zM115.6 16.7c0 2.7-1.6 4.1-3.6 4.1-2.1 0-3.5-1.6-3.5-4 0-2.5 1.5-4.1 3.6-4.1s3.5 1.6 3.5 4m-6.1.1c0 1.7.9 3.2 2.5 3.2s2.5-1.5 2.5-3.3c0-1.6-.8-3.2-2.5-3.2-1.6 0-2.5 1.6-2.5 3.3" class="st2"/><path d="M69.5 29.5h-3v2.8h3.4v.8h-4.4v-7.8h4.2v.9h-3.2v2.4h3zM71.1 31.9c.5.3 1.1.5 1.8.5 1 0 1.6-.5 1.6-1.3 0-.7-.4-1.1-1.5-1.5-1.3-.5-2.1-1.1-2.1-2.2 0-1.2 1-2.1 2.5-2.1.8 0 1.4.2 1.7.4l-.3.8c-.2-.2-.8-.4-1.5-.4-1.1 0-1.5.6-1.5 1.2 0 .7.5 1.1 1.6 1.5 1.3.5 2 1.1 2 2.3 0 1.2-.9 2.3-2.7 2.3-.8 0-1.6-.2-2-.5l.4-1zM76.9 25.4c.5-.1 1.1-.2 1.9-.2 1 0 1.7.2 2.2.7.4.4.7.9.7 1.6 0 .7-.2 1.3-.6 1.7-.5.6-1.4.9-2.4.9-.3 0-.6 0-.8-.1v3.1h-1v-7.7zm1 3.8c.2.1.5.1.8.1 1.2 0 2-.6 2-1.7 0-1-.7-1.5-1.8-1.5-.4 0-.8 0-1 .1v3zM83.4 30.7l-.8 2.5h-1l2.7-7.8h1.2l2.7 7.8H87l-.8-2.5h-2.8zm2.6-.8l-.8-2.3c-.2-.5-.3-1-.4-1.4-.1.5-.2.9-.4 1.4l-.8 2.3H86zM89.2 33.1v-7.8h1.1l2.5 4c.6.9 1 1.7 1.4 2.5-.1-1-.1-2-.1-3.2v-3.3h1v7.8h-1l-2.5-4c-.5-.9-1.1-1.8-1.5-2.6.1 1 .1 1.9.1 3.2V33h-1zm1.6-8.3c0-.7.3-1.2.8-1.2.3 0 .4.1.7.2.2.1.4.2.6.2.2 0 .3-.1.3-.5h.5c0 .7-.2 1.1-.8 1.1-.2 0-.5-.1-.7-.2-.2-.1-.4-.2-.5-.2-.2 0-.3.2-.3.5h-.6zM103.6 29.1c0 2.7-1.6 4.1-3.6 4.1-2.1 0-3.5-1.6-3.5-4 0-2.5 1.5-4.1 3.6-4.1 2.1.1 3.5 1.7 3.5 4m-6.1.2c0 1.7.9 3.2 2.5 3.2s2.5-1.5 2.5-3.3c0-1.6-.8-3.2-2.5-3.2s-2.5 1.5-2.5 3.3" class="st2"/><path d="M104.9 25.3h1v7h3.3v.8h-4.3zM112.8 25.4c.6-.1 1.3-.2 2.2-.2 1.5 0 2.5.3 3.2 1 .7.6 1.1 1.5 1.1 2.8 0 1.3-.4 2.3-1.1 3-.7.7-1.9 1.1-3.5 1.1-.7 0-1.3 0-1.8-.1v-7.6zm1 6.9c.3 0 .6 0 1 0 2.2 0 3.3-1.2 3.3-3.3 0-1.8-1-3-3.2-3-.5 0-.9 0-1.2.1v6.2zM124.6 29.5h-3v2.8h3.4v.8h-4.5v-7.8h4.3v.9h-3.2v2.4h3zM72.2 41.6c0 2.7-1.6 4.1-3.6 4.1-2.1 0-3.5-1.6-3.5-4 0-2.5 1.5-4.1 3.6-4.1s3.5 1.7 3.5 4m-6.1.1c0 1.7.9 3.2 2.5 3.2s2.5-1.5 2.5-3.3c0-1.6-.8-3.2-2.5-3.2-1.7.1-2.5 1.6-2.5 3.3" class="st2"/><path d="M78.9 45.4c-.4.2-1.1.4-2.1.4-2.2 0-3.9-1.4-3.9-4 0-2.5 1.7-4.1 4.1-4.1 1 0 1.6.2 1.9.4l-.3.8c-.4-.2-.9-.3-1.6-.3-1.8 0-3.1 1.2-3.1 3.2 0 1.9 1.1 3.1 3 3.1.6 0 1.3-.1 1.7-.3l.3.8zM84.3 41.9h-3.1v2.9h3.4v.8h-4.4v-7.8h4.2v.8h-3.2v2.5h3.1zM87.2 43.1l-.8 2.5h-1l2.7-7.8h1.2l2.7 7.8h-1.1l-.9-2.5h-2.8zm2.6-.7l-.8-2.3c-.2-.5-.3-1-.4-1.4-.1.5-.2.9-.4 1.4l-.8 2.3h2.4zM93 45.6v-7.8h1.1l2.5 4c.6.9 1 1.7 1.4 2.5-.1-1-.1-2-.1-3.2v-3.3h1v7.8h-1l-2.5-4c-.5-.9-1.1-1.8-1.5-2.6.1 1 .1 2 .1 3.3v3.3h-1zM107.4 41.6c0 2.7-1.6 4.1-3.6 4.1-2.1 0-3.5-1.6-3.5-4 0-2.5 1.5-4.1 3.6-4.1s3.5 1.7 3.5 4m-6.1.1c0 1.7.9 3.2 2.5 3.2s2.5-1.5 2.5-3.3c0-1.6-.8-3.2-2.5-3.2-1.7.1-2.5 1.6-2.5 3.3" class="st2"/><path d="M114.7 45.3c-.5.2-1.4.4-2.4.4-1.2 0-2.2-.3-2.9-1-.7-.6-1.1-1.7-1.1-2.9 0-2.3 1.6-4 4.2-4 .9 0 1.6.2 2 .4l-.3.8c-.4-.2-.9-.3-1.7-.3-1.9 0-3.1 1.2-3.1 3.1 0 2 1.2 3.2 3 3.2.7 0 1.1-.1 1.3-.2v-2.3h-1.6v-.8h2.6v3.6zM116.2 37.9c.5-.1 1.3-.2 1.9-.2 1.1 0 1.8.2 2.3.6.4.3.6.9.6 1.5 0 1-.7 1.7-1.5 2 .6.2 1 .8 1.1 1.6.3 1.1.4 1.8.6 2.1h-1c-.1-.2-.3-.9-.5-1.9-.2-1.1-.7-1.5-1.6-1.5h-1v3.4h-1v-7.6zm1 3.5h1c1.1 0 1.8-.6 1.8-1.5 0-1-.7-1.5-1.8-1.5-.5 0-.8 0-1 .1v2.9zM123.8 43.1l-.8 2.5h-1l2.7-7.8h1.2l2.7 7.8h-1.1l-.8-2.5h-2.9zm2.5-.7l-.8-2.3c-.2-.5-.3-1-.4-1.4-.1.5-.2.9-.4 1.4l-.8 2.3h2.4zM129.6 37.8h4.2v.8h-3.2v2.6h3v.9h-3v3.5h-1zM137.5 36l-1.5 1.4h-.8l1.1-1.4h1.2zm-1.2 9.6h-1v-7.8h1v7.8zM139.3 43.1l-.8 2.5h-1l2.7-7.8h1.2l2.7 7.8H143l-.8-2.5h-2.9zm2.6-.7l-.8-2.3c-.2-.5-.3-1-.4-1.4-.1.5-.2.9-.4 1.4l-.8 2.3h2.4z" class="st2"/></svg>